

<svg version="1.0" xmlns="http://www.w3.org/2000/svg"
 width="444.000000pt" height="512.000000pt" viewBox="0 0 444.000000 512.000000"
 preserveAspectRatio="xMidYMid meet">

<g transform="translate(0.000000,512.000000) scale(0.100000,-0.100000)"
fill="#ffffff" stroke="none">
<path d="M2147 5070 c-262 -198 -591 -372 -901 -475 -333 -110 -631 -157
-1023 -159 l-211 -1 -6 -35 c-9 -53 -7 -288 4 -540 32 -718 141 -1285 347
-1803 30 -76 53 -140 51 -141 -1 -1 -25 -10 -51 -20 -104 -39 -184 -133 -207
-241 -7 -34 -10 -272 -8 -726 3 -625 5 -677 22 -721 25 -67 96 -141 164 -175
l57 -28 1835 0 1835 0 57 28 c72 35 141 110 165 180 17 48 18 101 18 752 l0
700 -26 55 c-37 80 -81 125 -157 162 -37 17 -68 32 -69 33 -2 1 21 60 51 132
157 378 259 808 311 1298 24 226 38 630 30 853 l-7 202 -169 0 c-202 0 -314
11 -509 50 -431 86 -898 282 -1402 586 l-137 83 -64 -49z m151 -378 c309 -194
678 -369 981 -466 243 -79 397 -106 628 -113 l181 -6 8 -86 c10 -120 -2 -555
-21 -741 -48 -481 -154 -886 -330 -1265 l-44 -95 -1476 0 -1476 0 -35 77
c-249 540 -374 1192 -374 1956 l0 187 154 0 c428 0 808 88 1191 275 157 77
344 189 455 274 36 27 68 50 73 50 4 1 42 -21 85 -47z m-698 -3324 c90 -45
120 -106 120 -243 0 -111 -28 -170 -103 -220 -49 -33 -261 -125 -286 -125 -6
0 -11 -9 -11 -20 0 -19 7 -20 195 -20 l195 0 0 -115 0 -115 -355 0 -355 0 0
121 c0 166 10 201 80 270 53 54 131 98 298 170 39 17 42 21 42 59 l0 40 -107
0 c-98 0 -196 -10 -243 -25 -16 -5 -20 4 -30 67 -7 40 -13 88 -14 107 -1 33 1
35 49 48 99 26 153 31 310 30 152 -2 163 -3 215 -29z m910 -10 c0 -13 -7 -61
-15 -108 -8 -47 -15 -86 -15 -87 0 -2 -58 -3 -130 -3 l-130 0 0 -70 0 -70 120
0 120 0 0 -105 0 -105 -120 0 -120 0 0 -150 0 -151 -137 3 -138 3 -3 433 -2
432 285 0 285 0 0 -22z m719 -15 c75 -285 211 -815 211 -823 0 -6 -51 -10
-139 -10 l-139 0 -17 70 -17 71 -126 -3 -126 -3 -16 -65 -15 -65 -137 -3
c-124 -2 -138 -1 -138 14 0 18 209 833 217 847 2 4 100 7 218 7 l214 0 10 -37z"/>
<path d="M2103 4035 c-170 -37 -321 -173 -390 -352 -21 -57 -27 -89 -31 -199
l-5 -132 -50 -5 c-39 -3 -56 -11 -74 -31 l-23 -27 0 -500 0 -500 25 -24 24
-25 641 0 641 0 24 25 25 24 0 500 0 500 -23 27 c-18 20 -35 28 -74 31 l-50 5
-5 132 c-4 110 -10 142 -31 199 -54 140 -154 251 -280 311 -115 55 -221 68
-344 41z m243 -176 c163 -61 253 -215 254 -431 l0 -78 -380 0 -380 0 0 78 c1
214 86 361 246 427 78 32 180 34 260 4z m-48 -793 c60 -31 94 -88 94 -156 0
-55 -20 -98 -61 -133 l-29 -24 44 -127 44 -126 -170 0 -169 0 26 68 c14 37 34
93 46 124 l20 56 -32 27 c-43 37 -63 80 -63 135 0 68 34 124 97 158 28 16 121
15 153 -2z"/>
<path d="M2965 1098 c-5 -16 -35 -202 -35 -217 0 -7 25 -11 70 -11 l70 0 0 28
c0 16 -5 55 -10 88 -6 32 -13 74 -16 92 -4 29 -8 32 -40 32 -19 0 -36 -6 -39
-12z"/>
</g>
</svg>
